<svg xmlns="http://www.w3.org/2000/svg" width="652" height="652" viewBox="0 0 652 652" version="1.1">
	<path d="M 329.918 128.118 C 318.688 133.408, 284.750 149.334, 254.500 163.508 C 208.900 184.876, 197.989 190.383, 190.660 195.733 C 185.797 199.281, 156.772 220.891, 126.160 243.755 C 95.547 266.619, 65.438 289.104, 59.250 293.721 C 53.063 298.338, 48 302.304, 48 302.533 C 48 302.763, 49.237 302.471, 50.750 301.884 C 52.263 301.298, 67 296.088, 83.500 290.306 C 100 284.525, 117.100 278.521, 121.500 276.963 C 125.900 275.406, 137.150 271.447, 146.500 268.165 C 155.850 264.884, 164.785 261.698, 166.355 261.084 C 167.925 260.471, 180.750 251.561, 194.855 241.283 C 208.960 231.005, 246.150 203.889, 277.500 181.025 C 308.850 158.160, 335.922 138.449, 337.660 137.223 L 340.819 134.992 366.910 163.706 C 381.259 179.499, 393 192.728, 393 193.104 C 393 193.480, 372.072 210.758, 346.494 231.500 C 320.915 252.241, 299.760 269.579, 299.483 270.028 C 299.014 270.786, 330.439 262.924, 335.368 261.050 C 336.583 260.588, 350.160 250.638, 365.539 238.939 C 380.917 227.240, 402.725 210.697, 414 202.178 C 425.275 193.659, 435.429 185.859, 436.564 184.844 C 437.700 183.830, 439.275 183.014, 440.064 183.031 C 440.854 183.048, 462.609 204.139, 488.409 229.901 L 535.318 276.740 531.909 277.807 C 530.034 278.394, 523.775 280.354, 518 282.162 C 509.911 284.695, 508.189 285.521, 510.500 285.762 C 516.205 286.357, 597.501 291.777, 597.728 291.578 C 597.981 291.355, 587.286 279.352, 550.561 238.644 L 525.623 211 502.570 211 L 479.518 211 459.982 191.482 L 440.446 171.964 426.019 177.098 L 411.592 182.231 402.046 172.359 C 396.796 166.929, 383.013 152.590, 371.418 140.493 L 350.335 118.500 329.918 128.118 M 404.667 235.667 C 404.300 236.033, 404 243.921, 404 253.194 L 404 270.055 418.167 269.777 L 432.334 269.500 432.176 253 C 432.089 243.925, 432.014 236.162, 432.009 235.750 C 431.998 234.823, 405.591 234.743, 404.667 235.667 M 441 252.472 L 441 270 455.024 270 L 469.047 270 468.774 252.750 L 468.500 235.500 454.750 235.222 L 441 234.944 441 252.472 M 558.776 308.190 C 545.126 309.934, 536.356 319.376, 533.943 334.926 C 531.194 352.645, 538.010 368.478, 550.911 374.340 C 557.707 377.428, 571.634 377.358, 578.500 374.201 C 589.909 368.954, 595.014 360.305, 595.776 344.935 C 597.071 318.792, 583.247 305.063, 558.776 308.190 M 55 342 L 55 376 61.500 376 L 68 376 68 360.500 L 68 345 83 345 L 98 345 98 360.500 L 98 376 105.013 376 L 112.027 376 111.763 342.250 L 111.500 308.500 105 308.500 L 98.500 308.500 98.220 321.250 L 97.940 334 82.970 334 L 68 334 68 321 L 68 308 61.500 308 L 55 308 55 342 M 129 341.981 L 129 376 151.500 376 L 174 376 174 370.500 L 174 365 158 365 L 142 365 142 355.500 L 142 346 156.052 346 L 170.105 346 169.802 340.750 L 169.500 335.500 155.750 335.222 L 142 334.944 142 327.497 L 142 320.051 157.750 319.775 L 173.500 319.500 173.500 314 L 173.500 308.500 151.250 308.231 L 129 307.962 129 341.981 M 187 341.872 L 187 376 193.500 376 L 200 376 200 362 L 200 348 205.865 348 C 214.601 348, 215.985 349.503, 220.576 363.980 L 224.388 376 231.194 376 C 234.937 376, 238 375.866, 238 375.703 C 238 374.792, 230.052 351.943, 229.030 349.916 C 228.360 348.587, 226.616 346.445, 225.156 345.156 C 223.471 343.669, 222.939 342.639, 223.702 342.339 C 237.741 336.810, 238.888 317.656, 225.576 311.060 C 221.088 308.836, 219.158 308.581, 203.826 308.182 L 187 307.744 187 341.872 M 250 342 L 250 376 256.500 376 L 263 376 263 353 C 263 340.350, 263.337 330.019, 263.750 330.043 C 264.163 330.067, 270.800 340.411, 278.500 353.031 L 292.500 375.975 299.250 375.987 L 306 376 306 341.952 L 306 307.905 299.750 308.202 L 293.500 308.500 293 330.482 L 292.500 352.463 278.642 330.232 L 264.784 308 257.392 308 L 250 308 250 342 M 340.523 308.963 C 339.831 310.082, 339.742 310.336, 326.149 349.750 L 317.095 376 323.995 376 L 330.895 376 333.233 368.250 L 335.571 360.500 348.574 360.222 L 361.576 359.945 364.096 367.722 L 366.616 375.500 373.744 375.793 L 380.872 376.085 373.335 354.293 C 369.190 342.307, 363.931 327.100, 361.649 320.500 L 357.500 308.500 349.333 308.211 C 344.436 308.038, 340.909 308.339, 340.523 308.963 M 390 342 L 390 376 396.500 376 L 403 376 403 353 C 403 340.350, 403.337 330.019, 403.750 330.043 C 404.163 330.067, 410.800 340.411, 418.500 353.031 L 432.500 375.975 439.250 375.987 L 446 376 446 341.952 L 446 307.905 439.750 308.202 L 433.500 308.500 433 330.482 L 432.500 352.463 418.642 330.232 L 404.784 308 397.392 308 L 390 308 390 342 M 465 341.951 L 465 376.198 482.250 375.757 C 502.768 375.232, 507.034 374.061, 514.071 367.024 C 520.271 360.825, 522.451 354.414, 522.413 342.500 C 522.380 332.126, 521.131 326.985, 517.234 321.182 C 510.774 311.564, 503.879 309.092, 481.250 308.284 L 465 307.704 465 341.951 M 200 328 L 200 337 208.545 337 C 216.285 337, 217.322 336.769, 219.545 334.545 C 223.594 330.497, 222.358 322.395, 217.343 320.110 C 216.002 319.500, 211.552 319, 207.453 319 L 200 319 200 328 M 557.450 320.344 C 549.994 323.745, 546.239 333.361, 547.321 346.286 C 548.382 358.947, 554.128 365, 565.087 365 C 572.134 365, 576.598 362.270, 579.750 356.030 C 581.621 352.326, 581.996 349.971, 581.978 342.038 C 581.953 330.971, 580.111 325.639, 575.074 322.052 C 571.102 319.224, 561.869 318.329, 557.450 320.344 M 478 342.622 L 478 365.245 486.768 364.825 C 502.154 364.090, 507.865 358.849, 508.768 344.635 C 509.328 335.833, 507.843 330.029, 503.876 325.511 C 500.178 321.300, 495.940 320.013, 485.750 320.006 L 478 320 478 342.622 M 347.507 324.250 C 344.260 333.693, 339.946 348.279, 340.296 348.629 C 340.545 348.878, 344.570 348.951, 349.240 348.791 L 357.732 348.500 353.695 335.750 C 349.907 323.790, 348.540 321.248, 347.507 324.250 M 54 430 L 54 450 56.500 450 L 59 450 59 439.965 L 59 429.930 69.250 430.215 L 79.500 430.500 79.786 440.250 C 80.048 449.176, 80.238 450, 82.036 450 C 83.922 450, 84 449.210, 84 430 C 84 410.667, 83.933 410, 82 410 C 80.167 410, 80 410.667, 80 418 L 80 426 69.500 426 L 59 426 59 418 C 59 410.133, 58.958 410, 56.500 410 L 54 410 54 430 M 104.218 411.609 C 96.585 415.498, 93.264 426.221, 96.147 437.671 C 98.414 446.672, 106.838 451.636, 116.779 449.828 C 125.886 448.172, 130.446 441.556, 130.446 430 C 130.446 421.664, 128.184 416.217, 123.188 412.519 C 119.515 409.801, 108.778 409.286, 104.218 411.609 M 140 429.940 C 140 449.333, 140.066 450, 142 450 C 143.917 450, 144 449.333, 144 434 C 144 425.200, 144.338 418.003, 144.750 418.008 C 145.162 418.012, 148.029 425.099, 151.120 433.758 C 156.140 447.819, 156.999 449.532, 159.163 449.796 C 161.445 450.076, 161.932 449.124, 167.543 433.414 L 173.500 416.735 173.774 433.367 L 174.048 450 176.524 450 L 179 450 179 429.940 L 179 409.879 175.340 410.190 L 171.679 410.500 165.693 427.270 C 162.400 436.493, 159.520 443.853, 159.293 443.626 C 159.066 443.399, 156.254 435.853, 153.046 426.856 L 147.212 410.500 143.606 410.190 L 140 409.879 140 429.940 M 191 430 L 191 450 203.500 450 C 215.333 450, 216 449.893, 216 448 C 216 446.133, 215.333 446, 206 446 L 196 446 196 438.500 L 196 431 204.500 431 C 212.333 431, 213 430.843, 213 429 C 213 427.157, 212.333 427, 204.500 427 L 196 427 196 420.500 L 196 414 206 414 C 215.333 414, 216 413.867, 216 412 C 216 410.107, 215.333 410, 203.500 410 L 191 410 191 430 M 238 430 L 238 450 240.500 450 L 243 450 243 430 L 243 410 240.500 410 L 238 410 238 430 M 255 430 L 255 450 257.475 450 L 259.950 450 260.225 433.750 L 260.500 417.500 270.500 433.734 C 279.487 448.322, 280.779 449.969, 283.250 449.984 L 286 450 286 430 L 286 410 283.500 410 L 281 410 281 425.059 C 281 433.341, 280.624 439.886, 280.165 439.602 C 279.706 439.319, 275.160 432.542, 270.062 424.543 C 261.621 411.300, 260.533 410, 257.896 410 L 255 410 255 430 M 300.775 411.559 C 295.947 414.179, 294.637 419.464, 297.462 424.926 C 298.936 427.777, 302.706 429.767, 310.722 431.925 C 316.133 433.382, 318 435.338, 318 439.548 C 318 444.338, 314.643 446.412, 307.937 445.768 C 304.268 445.415, 302.149 444.559, 300.108 442.603 C 297.693 440.290, 297.142 440.124, 296.085 441.397 C 293.485 444.531, 299.572 449.570, 306.500 450.018 C 314.234 450.518, 316.193 450.007, 319.600 446.600 C 322.340 443.860, 323 442.419, 323 439.177 C 323 433.233, 319.593 429.703, 311.779 427.549 C 303.274 425.206, 301 423.623, 301 420.048 C 301 418.450, 301.707 416.436, 302.571 415.571 C 304.655 413.488, 312.839 413.499, 315.824 415.589 C 318.278 417.308, 321 416.865, 321 414.747 C 321 410.597, 306.701 408.343, 300.775 411.559 M 332 430 L 332 450 334.500 450 C 336.958 450, 337 449.867, 337 442 L 337 434 344.600 434 C 351.910 434, 352.330 433.870, 355.600 430.600 C 358.537 427.663, 359 426.536, 359 422.323 C 359 413.156, 354.270 410, 340.532 410 L 332 410 332 430 M 369 430 L 369 450 381.500 450 C 393.333 450, 394 449.893, 394 448 C 394 446.133, 393.333 446, 384 446 L 374 446 374 438.500 L 374 431 382.500 431 C 390.333 431, 391 430.843, 391 429 C 391 427.157, 390.333 427, 382.500 427 L 374 427 374 420.500 L 374 414 384 414 C 393.333 414, 394 413.867, 394 412 C 394 410.107, 393.333 410, 381.500 410 L 369 410 369 430 M 409.411 411.891 C 400.219 417.497, 397.237 431.532, 403.044 441.864 C 408.938 452.352, 426.334 452.991, 431.546 442.912 C 432.900 440.292, 432.953 439.585, 431.844 438.883 C 429.823 437.601, 429.196 437.806, 428.508 439.974 C 427.350 443.623, 423.112 446, 417.765 446 C 413.478 446, 412.348 445.548, 409.490 442.690 C 407.085 440.285, 405.987 438.096, 405.476 434.690 C 403.645 422.479, 408.559 414, 417.466 414 C 422.552 414, 425.675 415.213, 428 418.091 C 429.991 420.555, 432.487 419.111, 431.518 416.056 C 429.706 410.346, 416.137 407.790, 409.411 411.891 M 436.500 411 C 435.229 413.056, 437.292 414, 443.059 414 L 449 414 449 432 L 449 450 451.500 450 L 454 450 454 432 L 454 414 460 414 C 465.333 414, 466 413.778, 466 412 C 466 410.092, 465.333 410, 451.559 410 C 443.010 410, 436.866 410.408, 436.500 411 M 474 430 L 474 450 476.500 450 L 479 450 479 430 L 479 410 476.500 410 L 474 410 474 430 M 498.218 411.609 C 491.221 415.173, 487.614 425.360, 489.747 435.530 C 491.975 446.153, 497.661 450.509, 508.404 449.825 C 515.551 449.370, 518.762 447.426, 522.155 441.500 C 523.983 438.307, 524.446 435.986, 524.446 430 C 524.446 421.664, 522.184 416.217, 517.188 412.519 C 513.515 409.801, 502.778 409.286, 498.218 411.609 M 534 430 L 534 450 536.475 450 L 538.950 450 539.225 433.750 L 539.500 417.500 549.500 433.734 C 558.487 448.322, 559.779 449.969, 562.250 449.984 L 565 450 565 430 L 565 410 562.500 410 L 560 410 560 425.059 C 560 433.761, 559.619 439.883, 559.097 439.560 C 558.601 439.253, 554.057 432.477, 549.001 424.501 C 540.614 411.274, 539.552 410, 536.903 410 L 534 410 534 430 M 579.775 411.559 C 574.947 414.179, 573.637 419.464, 576.462 424.926 C 577.936 427.777, 581.706 429.767, 589.722 431.925 C 595.133 433.382, 597 435.338, 597 439.548 C 597 444.338, 593.643 446.412, 586.937 445.768 C 583.268 445.415, 581.149 444.559, 579.108 442.603 C 576.693 440.290, 576.142 440.124, 575.085 441.397 C 572.485 444.531, 578.572 449.570, 585.500 450.018 C 593.234 450.518, 595.193 450.007, 598.600 446.600 C 601.381 443.819, 602 442.440, 602 439.023 C 602 433.403, 598.289 429.707, 590.398 427.468 C 582.216 425.146, 580 423.565, 580 420.048 C 580 418.450, 580.707 416.436, 581.571 415.571 C 583.655 413.488, 591.839 413.499, 594.824 415.589 C 597.366 417.369, 600 416.844, 600 414.557 C 600 410.513, 585.628 408.383, 579.775 411.559 M 104.490 417.310 C 98.449 423.351, 98.449 436.649, 104.490 442.690 C 107.388 445.588, 108.447 446, 113 446 C 117.553 446, 118.612 445.588, 121.510 442.690 C 123.915 440.285, 125.013 438.096, 125.524 434.690 C 126.672 427.031, 125.303 421.103, 121.510 417.310 C 118.612 414.412, 117.553 414, 113 414 C 108.447 414, 107.388 414.412, 104.490 417.310 M 337 422 L 337 430 343.389 430 C 350.303 430, 353.728 428.234, 354.055 424.500 C 354.766 416.391, 352.362 414, 343.500 414 L 337 414 337 422 M 498.490 417.310 C 494.697 421.103, 493.328 427.031, 494.476 434.690 C 494.987 438.096, 496.085 440.285, 498.490 442.690 C 501.388 445.588, 502.447 446, 507 446 C 511.553 446, 512.612 445.588, 515.510 442.690 C 519.303 438.897, 520.672 432.969, 519.524 425.310 C 519.013 421.904, 517.915 419.715, 515.510 417.310 C 512.612 414.412, 511.553 414, 507 414 C 502.447 414, 501.388 414.412, 498.490 417.310" stroke="none" fill="#ffffff" fill-rule="evenodd"/>
</svg>