<svg xmlns="http://www.w3.org/2000/svg" width="1024" height="1024" viewBox="0 0 1024 1024" version="1.1">
	<path d="M 517.918 336.118 C 506.688 341.408, 472.750 357.331, 442.500 371.503 C 396.831 392.899, 386 398.366, 378.660 403.728 C 373.797 407.279, 344.772 428.891, 314.160 451.755 C 283.547 474.619, 253.438 497.104, 247.250 501.721 C 241.063 506.338, 236 510.304, 236 510.533 C 236 510.763, 237.238 510.471, 238.750 509.884 C 240.262 509.298, 255 504.088, 271.500 498.306 C 288 492.525, 305.100 486.521, 309.500 484.963 C 313.900 483.406, 325.150 479.447, 334.500 476.165 C 343.850 472.884, 352.782 469.698, 354.350 469.086 C 355.917 468.474, 376.842 453.655, 400.850 436.154 C 424.857 418.654, 462.050 391.537, 483.500 375.895 C 504.950 360.253, 523.922 346.451, 525.660 345.224 L 528.819 342.992 554.910 371.706 C 569.259 387.499, 581 400.725, 581 401.099 C 581 401.472, 560.075 418.745, 534.500 439.484 C 508.926 460.222, 487.771 477.562, 487.489 478.017 C 487.016 478.783, 518.398 470.940, 523.368 469.050 C 524.583 468.588, 538.160 458.638, 553.539 446.939 C 568.917 435.240, 590.725 418.697, 602 410.178 C 613.275 401.659, 623.429 393.859, 624.564 392.844 C 625.700 391.830, 627.275 391.014, 628.064 391.031 C 628.854 391.048, 650.609 412.139, 676.409 437.901 L 723.318 484.740 719.909 485.807 C 718.034 486.394, 711.775 488.354, 706 490.162 C 697.911 492.695, 696.189 493.521, 698.500 493.762 C 704.205 494.357, 785.501 499.777, 785.728 499.578 C 785.981 499.355, 775.286 487.352, 738.561 446.644 L 713.623 419 690.570 419 L 667.518 419 647.982 399.482 L 628.446 379.964 614.019 385.098 L 599.592 390.231 590.046 380.359 C 584.796 374.929, 571.013 360.590, 559.418 348.493 L 538.335 326.500 517.918 336.118 M 592.667 443.667 C 592.300 444.033, 592 451.921, 592 461.194 L 592 478.055 606.147 477.777 L 620.295 477.500 620.228 469 C 620.191 464.325, 620.124 456.563, 620.080 451.750 L 620 443 606.667 443 C 599.333 443, 593.033 443.300, 592.667 443.667 M 629 460.472 L 629 478 643.024 478 L 657.047 478 656.774 460.750 L 656.500 443.500 642.750 443.222 L 629 442.944 629 460.472 M 746.776 516.190 C 732.953 517.956, 724.149 527.597, 721.955 543.368 C 719.455 561.341, 726.048 576.495, 738.911 582.340 C 745.707 585.428, 759.634 585.358, 766.500 582.201 C 777.909 576.954, 783.014 568.305, 783.776 552.935 C 785.071 526.792, 771.247 513.063, 746.776 516.190 M 243 550 L 243 584 249.500 584 L 256 584 256 568.500 L 256 553 271 553 L 286 553 286 568.500 L 286 584 293.013 584 L 300.027 584 299.763 550.250 L 299.500 516.500 293 516.500 L 286.500 516.500 286.220 529.250 L 285.940 542 270.970 542 L 256 542 256 529 L 256 516 249.500 516 L 243 516 243 550 M 317 549.981 L 317 584 339.500 584 L 362 584 362 578.500 L 362 573 346 573 L 330 573 330 563.500 L 330 554 344.052 554 L 358.105 554 357.802 548.750 L 357.500 543.500 343.750 543.222 L 330 542.944 330 535.497 L 330 528.051 345.750 527.775 L 361.500 527.500 361.500 522 L 361.500 516.500 339.250 516.231 L 317 515.962 317 549.981 M 375 549.872 L 375 584 381.500 584 L 388 584 388 570 L 388 556 393.865 556 C 402.549 556, 403.886 557.454, 408.522 571.940 L 412.382 584 419.191 584 C 422.936 584, 426 583.866, 426 583.703 C 426 582.792, 418.052 559.943, 417.030 557.916 C 416.360 556.587, 414.616 554.445, 413.156 553.156 C 411.471 551.669, 410.939 550.639, 411.702 550.339 C 425.741 544.810, 426.888 525.656, 413.576 519.060 C 409.088 516.836, 407.158 516.581, 391.826 516.182 L 375 515.744 375 549.872 M 438 550 L 438 584 444.500 584 L 451 584 451 561 C 451 548.350, 451.337 538.019, 451.750 538.043 C 452.163 538.067, 458.800 548.411, 466.500 561.031 L 480.500 583.975 487.250 583.987 L 494 584 494 549.952 L 494 515.905 487.750 516.202 L 481.500 516.500 481 538.482 L 480.500 560.463 466.642 538.232 L 452.784 516 445.392 516 L 438 516 438 550 M 528.523 516.963 C 527.831 518.082, 527.742 518.336, 514.149 557.750 L 505.095 584 511.995 584 L 518.895 584 521.235 576.250 L 523.574 568.500 536.537 568.500 L 549.500 568.500 552.114 576 L 554.727 583.500 561.808 583.793 L 568.889 584.085 561.842 563.793 C 557.966 552.632, 552.703 537.425, 550.147 530 L 545.500 516.500 537.333 516.211 C 532.436 516.038, 528.909 516.339, 528.523 516.963 M 578 550 L 578 584 584.500 584 L 591 584 591 561 C 591 548.350, 591.337 538.019, 591.750 538.043 C 592.163 538.067, 598.800 548.411, 606.500 561.031 L 620.500 583.975 627.250 583.987 L 634 584 634 549.952 L 634 515.905 627.750 516.202 L 621.500 516.500 621 538.482 L 620.500 560.463 606.642 538.232 L 592.784 516 585.392 516 L 578 516 578 550 M 653 549.951 L 653 584.198 670.250 583.757 C 690.754 583.232, 695.067 582.053, 701.965 575.083 C 708.198 568.785, 710.480 562.152, 710.426 550.500 C 710.378 540.117, 709.126 534.978, 705.234 529.182 C 698.774 519.564, 691.879 517.092, 669.250 516.284 L 653 515.704 653 549.951 M 388 536 L 388 545 396.545 545 C 404.285 545, 405.322 544.769, 407.545 542.545 C 411.594 538.497, 410.358 530.395, 405.343 528.110 C 404.002 527.500, 399.552 527, 395.453 527 L 388 527 388 536 M 745.450 528.344 C 740.706 530.508, 737.280 535.334, 735.954 541.719 C 733.357 554.232, 736.980 567.526, 743.984 571.182 C 749.067 573.834, 757.759 573.626, 762.102 570.749 C 767.711 567.032, 770.112 560.827, 770.095 550.092 C 770.078 539.401, 768.045 533.592, 763.083 530.059 C 759.102 527.224, 749.874 526.327, 745.450 528.344 M 666 550.622 L 666 573.245 674.768 572.825 C 690.154 572.090, 695.865 566.849, 696.768 552.635 C 697.328 543.833, 695.843 538.029, 691.876 533.511 C 688.178 529.300, 683.940 528.013, 673.750 528.006 L 666 528 666 550.622 M 535.507 532.250 C 532.260 541.693, 527.946 556.279, 528.296 556.629 C 528.545 556.878, 532.570 556.951, 537.240 556.791 L 545.732 556.500 541.695 543.750 C 537.907 531.790, 536.540 529.248, 535.507 532.250 M 242 638 L 242 658 244.500 658 L 247 658 247 647.965 L 247 637.930 257.250 638.215 L 267.500 638.500 267.786 648.250 C 268.048 657.176, 268.238 658, 270.036 658 C 271.922 658, 272 657.210, 272 638 C 272 618.667, 271.933 618, 270 618 C 268.167 618, 268 618.667, 268 626 L 268 634 257.500 634 L 247 634 247 626 C 247 618.133, 246.958 618, 244.500 618 L 242 618 242 638 M 292.218 619.609 C 285.221 623.173, 281.614 633.360, 283.747 643.530 C 285.975 654.153, 291.661 658.509, 302.404 657.825 C 309.551 657.370, 312.762 655.426, 316.155 649.500 C 317.983 646.307, 318.446 643.986, 318.446 638 C 318.446 629.664, 316.184 624.217, 311.188 620.519 C 307.515 617.801, 296.778 617.286, 292.218 619.609 M 328 637.940 C 328 657.333, 328.066 658, 330 658 C 331.917 658, 332 657.333, 332 642 C 332 633.200, 332.337 626.003, 332.750 626.006 C 333.163 626.010, 336.013 633.098, 339.085 641.756 C 344.111 655.924, 344.916 657.530, 347.128 657.796 C 349.455 658.077, 349.903 657.204, 355.543 641.414 L 361.500 624.735 361.774 641.367 L 362.048 658 364.524 658 L 367 658 367 637.940 L 367 617.879 363.340 618.190 L 359.679 618.500 353.693 635.270 C 350.400 644.493, 347.520 651.853, 347.293 651.626 C 347.066 651.399, 344.254 643.853, 341.046 634.856 L 335.212 618.500 331.606 618.190 L 328 617.879 328 637.940 M 379 638 L 379 658 391.500 658 C 403.333 658, 404 657.893, 404 656 C 404 654.133, 403.333 654, 394 654 L 384 654 384 646.500 L 384 639 392.500 639 C 400.333 639, 401 638.843, 401 637 C 401 635.157, 400.333 635, 392.500 635 L 384 635 384 628.500 L 384 622 394 622 C 403.333 622, 404 621.867, 404 620 C 404 618.107, 403.333 618, 391.500 618 L 379 618 379 638 M 426 638 L 426 658 428.500 658 L 431 658 431 638 L 431 618 428.500 618 L 426 618 426 638 M 443 638 L 443 658 445.475 658 L 447.950 658 448.225 641.750 L 448.500 625.500 458.500 641.734 C 467.487 656.322, 468.779 657.969, 471.250 657.984 L 474 658 474 638 L 474 618 471.500 618 L 469 618 469 633.059 C 469 641.761, 468.619 647.883, 468.097 647.560 C 467.601 647.253, 463.057 640.477, 458.001 632.501 C 449.614 619.274, 448.552 618, 445.903 618 L 443 618 443 638 M 488.775 619.559 C 483.947 622.179, 482.637 627.464, 485.462 632.926 C 486.936 635.777, 490.706 637.767, 498.722 639.925 C 504.133 641.382, 506 643.338, 506 647.548 C 506 652.338, 502.643 654.412, 495.937 653.768 C 492.268 653.415, 490.149 652.559, 488.108 650.603 C 485.693 648.290, 485.142 648.124, 484.085 649.397 C 481.485 652.531, 487.572 657.570, 494.500 658.018 C 502.234 658.518, 504.193 658.007, 507.600 654.600 C 510.381 651.819, 511 650.440, 511 647.023 C 511 641.403, 507.289 637.707, 499.398 635.468 C 491.216 633.146, 489 631.565, 489 628.048 C 489 626.450, 489.707 624.436, 490.571 623.571 C 492.655 621.488, 500.839 621.499, 503.824 623.589 C 506.278 625.308, 509 624.865, 509 622.747 C 509 618.597, 494.701 616.343, 488.775 619.559 M 520 638 L 520 658 522.500 658 C 524.958 658, 525 657.867, 525 650 L 525 642 532.600 642 C 539.910 642, 540.330 641.870, 543.600 638.600 C 546.537 635.663, 547 634.536, 547 630.323 C 547 621.156, 542.270 618, 528.532 618 L 520 618 520 638 M 557 638 L 557 658 569.500 658 C 581.333 658, 582 657.893, 582 656 C 582 654.133, 581.333 654, 572 654 L 562 654 562 646.500 L 562 639 570.500 639 C 578.333 639, 579 638.843, 579 637 C 579 635.157, 578.333 635, 570.500 635 L 562 635 562 628.500 L 562 622 572 622 C 581.333 622, 582 621.867, 582 620 C 582 618.107, 581.333 618, 569.500 618 L 557 618 557 638 M 597.411 619.891 C 588.219 625.497, 585.237 639.532, 591.044 649.864 C 596.784 660.078, 613.273 661.160, 619.040 651.701 C 621.431 647.781, 621.448 647.386, 619.269 646.550 C 618.235 646.153, 617.364 646.408, 617.106 647.183 C 616.868 647.897, 615.431 649.723, 613.913 651.240 C 611.611 653.542, 610.296 654, 605.977 654 C 601.450 654, 600.384 653.584, 597.490 650.690 C 595.085 648.285, 593.987 646.096, 593.476 642.690 C 591.645 630.479, 596.559 622, 605.466 622 C 610.552 622, 613.675 623.213, 616 626.091 C 617.991 628.555, 620.487 627.111, 619.518 624.056 C 617.706 618.346, 604.137 615.790, 597.411 619.891 M 624.667 618.667 C 624.300 619.033, 624 619.933, 624 620.667 C 624 621.641, 625.750 622, 630.500 622 L 637 622 637 640 L 637 658 639.500 658 L 642 658 642 640 L 642 622 648 622 C 653.333 622, 654 621.778, 654 620 C 654 618.093, 653.333 618, 639.667 618 C 631.783 618, 625.033 618.300, 624.667 618.667 M 662 638 L 662 658 664.500 658 L 667 658 667 638 L 667 618 664.500 618 L 662 618 662 638 M 686.218 619.609 C 679.221 623.173, 675.614 633.360, 677.747 643.530 C 679.975 654.153, 685.661 658.509, 696.404 657.825 C 703.551 657.370, 706.762 655.426, 710.155 649.500 C 711.983 646.307, 712.446 643.986, 712.446 638 C 712.446 629.664, 710.184 624.217, 705.188 620.519 C 701.515 617.801, 690.778 617.286, 686.218 619.609 M 722 638 L 722 658 724.475 658 L 726.950 658 727.225 641.750 L 727.500 625.500 737.500 641.734 C 746.487 656.322, 747.779 657.969, 750.250 657.984 L 753 658 753 638 L 753 618 750.500 618 L 748 618 748 633.059 C 748 641.341, 747.624 647.886, 747.165 647.602 C 746.706 647.319, 742.160 640.542, 737.062 632.543 C 728.621 619.300, 727.533 618, 724.896 618 L 722 618 722 638 M 767.775 619.559 C 762.947 622.179, 761.637 627.464, 764.462 632.926 C 765.936 635.777, 769.706 637.767, 777.722 639.925 C 783.133 641.382, 785 643.338, 785 647.548 C 785 652.338, 781.643 654.412, 774.937 653.768 C 771.268 653.415, 769.149 652.559, 767.108 650.603 C 764.693 648.290, 764.142 648.124, 763.085 649.397 C 760.485 652.531, 766.572 657.570, 773.500 658.018 C 781.234 658.518, 783.193 658.007, 786.600 654.600 C 789.340 651.860, 790 650.419, 790 647.177 C 790 641.233, 786.593 637.703, 778.779 635.549 C 770.274 633.206, 768 631.623, 768 628.048 C 768 626.450, 768.707 624.436, 769.571 623.571 C 771.685 621.458, 779.407 621.537, 783.086 623.710 C 785.435 625.097, 786.218 625.178, 787.240 624.140 C 788.256 623.108, 787.957 622.391, 785.694 620.430 C 783.358 618.407, 781.852 618.007, 776.694 618.040 C 773.198 618.063, 769.313 618.724, 767.775 619.559 M 292.490 625.310 C 288.697 629.103, 287.328 635.031, 288.476 642.690 C 288.987 646.096, 290.085 648.285, 292.490 650.690 C 295.388 653.588, 296.447 654, 301 654 C 305.553 654, 306.612 653.588, 309.510 650.690 C 311.915 648.285, 313.013 646.096, 313.524 642.690 C 314.672 635.031, 313.303 629.103, 309.510 625.310 C 306.612 622.412, 305.553 622, 301 622 C 296.447 622, 295.388 622.412, 292.490 625.310 M 525 630 L 525 638 531.389 638 C 538.303 638, 541.728 636.234, 542.055 632.500 C 542.766 624.391, 540.362 622, 531.500 622 L 525 622 525 630 M 686.490 625.310 C 684.085 627.715, 682.987 629.904, 682.476 633.310 C 681.328 640.969, 682.697 646.897, 686.490 650.690 C 689.388 653.588, 690.447 654, 695 654 C 699.553 654, 700.612 653.588, 703.510 650.690 C 705.915 648.285, 707.013 646.096, 707.524 642.690 C 708.672 635.031, 707.303 629.103, 703.510 625.310 C 700.612 622.412, 699.553 622, 695 622 C 690.447 622, 689.388 622.412, 686.490 625.310" stroke="none" fill="#ffffff" fill-rule="evenodd"/>
</svg>
